{"title":"Oblivion (2013) 1080p x264 [DTS] - Raaki","uid":8781753,"size":3233569438,"categoryP":"video","categoryS":"hd___movies","magnet":"?xt=urn:btih:a4dc90e1388e68223455870e278e7c5d0f67bd01&amp;dn=Oblivion+%282013%29+1080p+x264+%5BDTS%5D+-+Raaki&amp;tr=udp%3A%2F%2Ftracker.openbittorrent.com%3A80&amp;tr=udp%3A%2F%2Fopen.demonii.com%3A1337&amp;tr=udp%3A%2F%2Ftracker.coppersurfer.tk%3A6969&amp;tr=udp%3A%2F%2Fexodus.desync.com%3A6969","seeders":1,"leechers":0,"uploader":"rakich","files":3,"time":1375728728,"description":"A veteran assigned to extract Earth's remaining resources begins to question what he knows about his mission and himself.\n\n      Format : Matroska\n      Format version : Version 4 / Version 2\n      File size : 3.01 GiB\n      Duration : 2h 4mn\n      Overall bit rate : 3 457 Kbps\n   \n   Video #1\n      ID : 1\n      Format : AVC\n      Format/Info : Advanced Video Codec\n      Format profile : &lt;a class=&quot;__cf_email__&quot; href=&quot;/cdn-cgi/l/email-protection&quot; data-cfemail=&quot;9fd2fef6f1dfd3abb1af&quot;&gt;[email&amp;#160;protected]&lt;/a&gt;&lt;script cf-hash='f9e31' type=&quot;text/javascript&quot;&gt;\n/* &lt;![CDATA[ */!function(){try{var t=&quot;currentScript&quot;in document?document.currentScript:function(){for(var t=document.getElementsByTagName(&quot;script&quot;),e=t.length;e--;)if(t[e].getAttribute(&quot;cf-hash&quot;))return t[e]}();if(t&amp;&amp;t.previousSibling){var e,r,n,i,c=t.previousSibling,a=c.getAttribute(&quot;data-cfemail&quot;);if(a){for(e=&quot;&quot;,r=parseInt(a.substr(0,2),16),n=2;a.length-n;n+=2)i=parseInt(a.substr(n,2),16)^r,e+=String.fromCharCode(i);e=document.createTextNode(e),c.parentNode.replaceChild(e,c)}}}catch(u){}}();/* ]]&gt; */&lt;/script&gt;\n      Format settings, CABAC : Yes\n      Format settings, ReFrames : 4 frames\n      Codec ID : V_MPEG4/ISO/AVC\n      Duration : 2h 4mn\n      Bit rate : 2 700 Kbps\n      Width : 1 920 pixels\n      Height : 804 pixels\n      Display aspect ratio : 2.40:1\n      Frame rate mode : Constant\n      Frame rate : 23.976 fps\n      Color space : YUV\n      Chroma subsampling : 4:2:0\n      Bit depth : 8 bits\n      Scan type : Progressive\n      Bits/(Pixel*Frame) : 0.073\n      Stream size : 2.29 GiB (76%)\n      Language : English\n\n   Audio #2\n      ID : 2\n      Format : DTS\n      Format/Info : Digital Theater Systems\n      Mode : 16\n      Format settings, Endianness : Big\n      Codec ID : A_DTS\n      Duration : 2h 4mn\n      Bit rate mode : Constant\n      Bit rate : 755 Kbps\n      Channel(s) : 6 channels\n      Channel positions : Front: L C R, Side: L R, LFE\n      Sampling rate : 48.0 KHz\n      Bit depth : 24 bits\n      Compression mode : Lossy\n      Stream size : 673 MiB (22%)\n      Title : Worldwide7477 (DTS)\n      Language : English\n      Default : Yes\n      Forced : No\n   Text #3\n      ID : 3\n      Format : UTF-8\n      Codec ID : S_TEXT/UTF8\n      Codec ID/Info : UTF-8 Plain Text\n      Default : Yes\n      Forced : No\n &lt;a href=&quot;\nhttp://cdn.piczend.com/images/AxkPVi60/4tbmsept1mjgw1tfuynntwquj.png&quot; rel=&quot;nofollow&quot; target=&quot;_NEW&quot;&gt;\nhttp://cdn.piczend.com/images/AxkPVi60/4tbmsept1mjgw1tfuynntwquj.png&lt;/a&gt;\n\n  &lt;a href=&quot;\nhttp://cdn.piczend.com/images/AxkPVi60/0z49wv4pmgyrwhi8rpviiqtx4.png&quot; rel=&quot;nofollow&quot; target=&quot;_NEW&quot;&gt;\nhttp://cdn.piczend.com/images/AxkPVi60/0z49wv4pmgyrwhi8rpviiqtx4.png&lt;/a&gt;\n\n  &lt;a href=&quot;\nhttp://cdn.piczend.com/images/AxkPVi60/7qqna0e0vdmgy2teqarxiqfyb.png&quot; rel=&quot;nofollow&quot; target=&quot;_NEW&quot;&gt;\nhttp://cdn.piczend.com/images/AxkPVi60/7qqna0e0vdmgy2teqarxiqfyb.png&lt;/a&gt;\n","torrent":{"xt":"urn:btih:a4dc90e1388e68223455870e278e7c5d0f67bd01","amp;dn":"Oblivion+%282013%29+1080p+x264+%5BDTS%5D+-+Raaki","amp;tr":["udp%3A%2F%2Ftracker.openbittorrent.com%3A80","udp%3A%2F%2Fopen.demonii.com%3A1337","udp%3A%2F%2Ftracker.coppersurfer.tk%3A6969","udp%3A%2F%2Fexodus.desync.com%3A6969"],"infoHash":"a4dc90e1388e68223455870e278e7c5d0f67bd01","infoHashBuffer":{"type":"Buffer","data":[164,220,144,225,56,142,104,34,52,85,135,14,39,142,124,93,15,103,189,1]},"announce":[],"urlList":[]}}